<svg viewBox="0 0 128 128" xmlns="http://www.w3.org/2000/svg" xmlns:xlink="http://www.w3.org/1999/xlink"><linearGradient id="a" gradientUnits="userSpaceOnUse" x1="64.162" x2="64.162" y1="41.463" y2="86.973"><stop offset="0" stop-color="#81b4e0"/><stop offset="1" stop-color="#0c5a94"/></linearGradient><linearGradient id="b" gradientUnits="userSpaceOnUse" x1="66.09" x2="66.09" y1="2.127" y2="52.59"><stop offset="0" stop-color="#f06b59"/><stop offset="1" stop-color="#df2227"/></linearGradient><linearGradient id="c" gradientUnits="userSpaceOnUse" x1="17.165" x2="42.673" y1="108.382" y2="66.238"><stop offset="0" stop-color="#388b41"/><stop offset="1" stop-color="#4cb749"/></linearGradient><linearGradient id="d" gradientUnits="userSpaceOnUse" x1="102.615" x2="75.443" y1="112.865" y2="47.43"><stop offset="0" stop-color="#e4b022"/><stop offset=".3" stop-color="#fcd209"/></linearGradient><linearGradient id="e"><stop offset="0" stop-opacity=".15"/><stop offset=".3" stop-opacity=".06"/><stop offset="1" stop-opacity=".03"/></linearGradient><linearGradient id="f" gradientUnits="userSpaceOnUse" x1="25.609" x2="25.609" xlink:href="#e" y1="70.89" y2="26.528"/><linearGradient id="g" gradientUnits="userSpaceOnUse" x1="86.842" x2="56.343" xlink:href="#e" y1="85.216" y2="116.27"/><linearGradient id="h" gradientUnits="userSpaceOnUse" x1="86.4" x2="90.837" xlink:href="#e" y1="94.154" y2="50.344"/><circle cx="64.149" cy="64.236" fill="#fff" r="60.999"/><path d="m102.966 75.327c0-21.439-17.379-38.819-38.817-38.819s-38.818 17.38-38.818 38.819h11.09c0-15.314 12.415-27.727 27.727-27.727 15.313 0 27.727 12.413 27.727 27.727" fill-opacity=".1"/><circle cx="66.922" cy="71.999" fill-opacity=".1" r="21.072"/><circle cx="64.149" cy="64.235" fill="url(#a)" r="22.736"/><path d="m119.602 36.508c-15.266-30.716-52.542-43.24-83.259-27.974-9.578 4.761-17.764 11.913-23.765 20.766l24.955 43.253c-4.597-14.606 3.521-30.174 18.127-34.77 2.567-.808 5.243-1.238 7.935-1.274" fill="url(#b)"/><path d="m12.578 29.3c-19.1 28.492-11.486 67.071 17.005 86.171 8.814 5.909 18.997 9.461 29.575 10.319l26.063-44.363c-9.745 11.811-27.22 13.486-39.032 3.74-4.011-3.309-7.012-7.679-8.657-12.613" fill="url(#c)"/><path d="m59.158 125.791c34.204 2.585 64.027-23.047 66.613-57.25.834-11.037-1.295-22.093-6.17-32.031h-56.006c15.312.07 27.67 12.541 27.598 27.854-.028 6.195-2.131 12.204-5.972 17.064" fill="url(#d)"/><path d="m12.578 29.3 24.955 43.253c-1.849-6.221-1.457-12.893 1.107-18.854l-24.954-26.063" fill="url(#f)"/><path d="m59.158 125.791 26.063-44.363c-4.112 4.904-9.794 8.233-16.082 9.426l-11.091 34.937" fill="url(#g)"/><path d="m119.602 36.508h-56.007c8.436.039 16.396 3.918 21.626 10.537l35.491-8.873" fill="url(#h)"/></svg>